<mxfile host="app.diagrams.net" modified="2022-07-21T15:38:30.570Z" agent="5.0 (Windows NT 10.0; Win64; x64) AppleWebKit/537.36 (KHTML, like Gecko) Chrome/103.0.0.0 Safari/537.36" etag="U-EcNt2JQDIRa4Ao3ajT" version="20.1.2" type="github">
  <diagram id="C5RBs43oDa-KdzZeNtuy" name="Page-1">
    <mxGraphModel dx="1153" dy="1777" grid="1" gridSize="10" guides="1" tooltips="1" connect="1" arrows="1" fold="1" page="1" pageScale="1" pageWidth="827" pageHeight="1169" math="0" shadow="0">
      <root>
        <mxCell id="WIyWlLk6GJQsqaUBKTNV-0" />
        <mxCell id="WIyWlLk6GJQsqaUBKTNV-1" parent="WIyWlLk6GJQsqaUBKTNV-0" />
        <mxCell id="hc8-fBp4aKdV9i0aLTfq-0" value="&lt;font style=&quot;font-size: 18px;&quot;&gt;iHub&lt;/font&gt;" style="rounded=1;whiteSpace=wrap;html=1;fillColor=#e1d5e7;strokeColor=#9673a6;sketch=1;" vertex="1" parent="WIyWlLk6GJQsqaUBKTNV-1">
          <mxGeometry x="30" y="240" width="120" height="60" as="geometry" />
        </mxCell>
        <mxCell id="hc8-fBp4aKdV9i0aLTfq-1" value="ipaassoa-beta.jd.com" style="rounded=0;whiteSpace=wrap;html=1;sketch=1;fontSize=18;fillColor=#dae8fc;strokeColor=#6c8ebf;" vertex="1" parent="WIyWlLk6GJQsqaUBKTNV-1">
          <mxGeometry x="220" y="80" width="190" height="60" as="geometry" />
        </mxCell>
        <mxCell id="hc8-fBp4aKdV9i0aLTfq-2" value="babelbeta.jd.com" style="rounded=0;whiteSpace=wrap;html=1;sketch=1;fontSize=18;fillColor=#dae8fc;strokeColor=#6c8ebf;" vertex="1" parent="WIyWlLk6GJQsqaUBKTNV-1">
          <mxGeometry x="215" y="390" width="200" height="60" as="geometry" />
        </mxCell>
        <mxCell id="hc8-fBp4aKdV9i0aLTfq-3" value="&lt;span style=&quot;color: rgb(51, 51, 51); font-family: &amp;quot;Open Sans&amp;quot;, &amp;quot;Clear Sans&amp;quot;, &amp;quot;Helvetica Neue&amp;quot;, Helvetica, Arial, &amp;quot;Segoe UI Emoji&amp;quot;, sans-serif; font-size: 16px; orphans: 4; text-align: left; background-color: rgb(255, 255, 255);&quot;&gt;addRecomPageToFavorites&lt;br&gt;模板收藏&lt;br&gt;&lt;/span&gt;" style="rounded=1;whiteSpace=wrap;html=1;sketch=1;fontSize=18;fillColor=#d5e8d4;strokeColor=#82b366;" vertex="1" parent="WIyWlLk6GJQsqaUBKTNV-1">
          <mxGeometry x="760" y="-450" width="240" height="80" as="geometry" />
        </mxCell>
        <mxCell id="hc8-fBp4aKdV9i0aLTfq-4" value="&lt;span style=&quot;color: rgb(51, 51, 51); font-family: &amp;quot;Open Sans&amp;quot;, &amp;quot;Clear Sans&amp;quot;, &amp;quot;Helvetica Neue&amp;quot;, Helvetica, Arial, &amp;quot;Segoe UI Emoji&amp;quot;, sans-serif; font-size: 16px; orphans: 4; text-align: left; background-color: rgb(255, 255, 255);&quot;&gt;templateStylePersonFromLibrary&lt;br&gt;&lt;/span&gt;&lt;span style=&quot;color: rgb(51, 51, 51); font-family: &amp;quot;Open Sans&amp;quot;, &amp;quot;Clear Sans&amp;quot;, &amp;quot;Helvetica Neue&amp;quot;, Helvetica, Arial, &amp;quot;Segoe UI Emoji&amp;quot;, sans-serif; font-size: 16px; orphans: 4; text-align: left; background-color: rgb(255, 255, 255);&quot;&gt;页面模板收藏&lt;br&gt;&lt;/span&gt;" style="rounded=1;whiteSpace=wrap;html=1;sketch=1;fontSize=18;fillColor=#d5e8d4;strokeColor=#82b366;" vertex="1" parent="WIyWlLk6GJQsqaUBKTNV-1">
          <mxGeometry x="760" y="-350" width="240" height="80" as="geometry" />
        </mxCell>
        <mxCell id="hc8-fBp4aKdV9i0aLTfq-5" value="&lt;span style=&quot;color: rgb(51, 51, 51); font-family: &amp;quot;Lucida Console&amp;quot;, Consolas, Courier, monospace; font-size: 14.4px; orphans: 4; text-align: left; background-color: rgb(243, 244, 244);&quot;&gt;ipaas-soa-template&lt;/span&gt;" style="rounded=0;whiteSpace=wrap;html=1;sketch=1;fontSize=18;fillColor=#fff2cc;strokeColor=#d6b656;" vertex="1" parent="WIyWlLk6GJQsqaUBKTNV-1">
          <mxGeometry x="460" y="-140" width="190" height="60" as="geometry" />
        </mxCell>
        <mxCell id="hc8-fBp4aKdV9i0aLTfq-6" value="&lt;span style=&quot;color: rgb(51, 51, 51); font-family: &amp;quot;Open Sans&amp;quot;, &amp;quot;Clear Sans&amp;quot;, &amp;quot;Helvetica Neue&amp;quot;, Helvetica, Arial, &amp;quot;Segoe UI Emoji&amp;quot;, sans-serif; font-size: 16px; orphans: 4; text-align: left; background-color: rgb(255, 255, 255);&quot;&gt;cancelKeepTemplateStyleService&lt;br&gt;&lt;/span&gt;&lt;span style=&quot;color: rgb(51, 51, 51); font-family: &amp;quot;Open Sans&amp;quot;, &amp;quot;Clear Sans&amp;quot;, &amp;quot;Helvetica Neue&amp;quot;, Helvetica, Arial, &amp;quot;Segoe UI Emoji&amp;quot;, sans-serif; font-size: 16px; orphans: 4; text-align: left; background-color: rgb(255, 255, 255);&quot;&gt;取消收藏模板&lt;br&gt;&lt;/span&gt;" style="rounded=1;whiteSpace=wrap;html=1;sketch=1;fontSize=18;fillColor=#d5e8d4;strokeColor=#82b366;" vertex="1" parent="WIyWlLk6GJQsqaUBKTNV-1">
          <mxGeometry x="760" y="-250" width="240" height="80" as="geometry" />
        </mxCell>
        <mxCell id="hc8-fBp4aKdV9i0aLTfq-7" value="&lt;span style=&quot;color: rgb(51, 51, 51); font-family: &amp;quot;Open Sans&amp;quot;, &amp;quot;Clear Sans&amp;quot;, &amp;quot;Helvetica Neue&amp;quot;, Helvetica, Arial, &amp;quot;Segoe UI Emoji&amp;quot;, sans-serif; font-size: 16px; orphans: 4; text-align: left; background-color: rgb(255, 255, 255);&quot;&gt;queryPageRecomTemplate&lt;br&gt;&lt;/span&gt;&lt;span style=&quot;color: rgb(51, 51, 51); font-family: &amp;quot;Open Sans&amp;quot;, &amp;quot;Clear Sans&amp;quot;, &amp;quot;Helvetica Neue&amp;quot;, Helvetica, Arial, &amp;quot;Segoe UI Emoji&amp;quot;, sans-serif; font-size: 16px; orphans: 4; text-align: left; background-color: rgb(255, 255, 255);&quot;&gt;查询所有页面模板&lt;br&gt;&lt;/span&gt;" style="rounded=1;whiteSpace=wrap;html=1;sketch=1;fontSize=18;fillColor=#d5e8d4;strokeColor=#82b366;" vertex="1" parent="WIyWlLk6GJQsqaUBKTNV-1">
          <mxGeometry x="760" y="-150" width="240" height="80" as="geometry" />
        </mxCell>
        <mxCell id="hc8-fBp4aKdV9i0aLTfq-8" value="&lt;span style=&quot;color: rgb(51, 51, 51); font-family: &amp;quot;Open Sans&amp;quot;, &amp;quot;Clear Sans&amp;quot;, &amp;quot;Helvetica Neue&amp;quot;, Helvetica, Arial, &amp;quot;Segoe UI Emoji&amp;quot;, sans-serif; font-size: 16px; orphans: 4; text-align: left; background-color: rgb(255, 255, 255);&quot;&gt;removeFavoritePage&lt;br&gt;&lt;/span&gt;&lt;span style=&quot;color: rgb(51, 51, 51); font-family: &amp;quot;Open Sans&amp;quot;, &amp;quot;Clear Sans&amp;quot;, &amp;quot;Helvetica Neue&amp;quot;, Helvetica, Arial, &amp;quot;Segoe UI Emoji&amp;quot;, sans-serif; font-size: 16px; orphans: 4; text-align: left; background-color: rgb(255, 255, 255);&quot;&gt;移除收藏页面&lt;br&gt;&lt;/span&gt;" style="rounded=1;whiteSpace=wrap;html=1;sketch=1;fontSize=18;fillColor=#d5e8d4;strokeColor=#82b366;" vertex="1" parent="WIyWlLk6GJQsqaUBKTNV-1">
          <mxGeometry x="760" y="-50" width="240" height="80" as="geometry" />
        </mxCell>
        <mxCell id="hc8-fBp4aKdV9i0aLTfq-9" value="&lt;span style=&quot;color: rgb(51, 51, 51); font-family: &amp;quot;Open Sans&amp;quot;, &amp;quot;Clear Sans&amp;quot;, &amp;quot;Helvetica Neue&amp;quot;, Helvetica, Arial, &amp;quot;Segoe UI Emoji&amp;quot;, sans-serif; font-size: 16px; orphans: 4; text-align: left; background-color: rgb(255, 255, 255);&quot;&gt;searchTemplateStyleLibraryList&lt;br&gt;&lt;/span&gt;&lt;span style=&quot;color: rgb(51, 51, 51); font-family: &amp;quot;Open Sans&amp;quot;, &amp;quot;Clear Sans&amp;quot;, &amp;quot;Helvetica Neue&amp;quot;, Helvetica, Arial, &amp;quot;Segoe UI Emoji&amp;quot;, sans-serif; font-size: 16px; orphans: 4; text-align: left; background-color: rgb(255, 255, 255);&quot;&gt;查询所有楼层模板&lt;br&gt;&lt;/span&gt;" style="rounded=1;whiteSpace=wrap;html=1;sketch=1;fontSize=18;fillColor=#d5e8d4;strokeColor=#82b366;" vertex="1" parent="WIyWlLk6GJQsqaUBKTNV-1">
          <mxGeometry x="760" y="50" width="240" height="80" as="geometry" />
        </mxCell>
        <mxCell id="hc8-fBp4aKdV9i0aLTfq-10" value="&lt;span style=&quot;orphans: 4; text-align: left; background-color: rgb(255, 255, 255);&quot;&gt;&lt;font face=&quot;Open Sans, Clear Sans, Helvetica Neue, Helvetica, Arial, Segoe UI Emoji, sans-serif&quot; color=&quot;#333333&quot;&gt;&lt;span style=&quot;font-size: 16px;&quot;&gt;queryAllTagDataService&lt;br&gt;&lt;/span&gt;&lt;/font&gt;查询所有标签&lt;br&gt;&lt;/span&gt;" style="rounded=1;whiteSpace=wrap;html=1;sketch=1;fontSize=18;fillColor=#d5e8d4;strokeColor=#82b366;" vertex="1" parent="WIyWlLk6GJQsqaUBKTNV-1">
          <mxGeometry x="760" y="150" width="240" height="80" as="geometry" />
        </mxCell>
        <mxCell id="hc8-fBp4aKdV9i0aLTfq-12" value="&lt;span style=&quot;color: rgb(51, 51, 51); font-family: &amp;quot;Open Sans&amp;quot;, &amp;quot;Clear Sans&amp;quot;, &amp;quot;Helvetica Neue&amp;quot;, Helvetica, Arial, &amp;quot;Segoe UI Emoji&amp;quot;, sans-serif; font-size: 16px; orphans: 4; text-align: left; background-color: rgb(255, 255, 255);&quot;&gt;TemplateMarketService&lt;br&gt;&lt;/span&gt;&lt;span style=&quot;color: rgb(51, 51, 51); font-family: &amp;quot;Open Sans&amp;quot;, &amp;quot;Clear Sans&amp;quot;, &amp;quot;Helvetica Neue&amp;quot;, Helvetica, Arial, &amp;quot;Segoe UI Emoji&amp;quot;, sans-serif; font-size: 16px; orphans: 4; text-align: left; background-color: rgb(255, 255, 255);&quot;&gt;（JSF）&lt;br&gt;&lt;/span&gt;" style="rounded=1;whiteSpace=wrap;html=1;sketch=1;fontSize=18;fillColor=#ffe6cc;strokeColor=#d79b00;" vertex="1" parent="WIyWlLk6GJQsqaUBKTNV-1">
          <mxGeometry x="1150" y="-150" width="240" height="80" as="geometry" />
        </mxCell>
        <mxCell id="hc8-fBp4aKdV9i0aLTfq-13" value="&lt;div style=&quot;orphans: 4; text-align: left;&quot;&gt;&lt;span style=&quot;background-color: initial; font-size: 14.4px;&quot;&gt;&lt;font face=&quot;Lucida Console, Consolas, Courier, monospace&quot; color=&quot;#333333&quot;&gt;ipaas-soa-business-identityId&lt;/font&gt;&lt;/span&gt;&lt;/div&gt;" style="rounded=0;whiteSpace=wrap;html=1;sketch=1;fontSize=18;fillColor=#fff2cc;strokeColor=#d6b656;" vertex="1" parent="WIyWlLk6GJQsqaUBKTNV-1">
          <mxGeometry x="425" y="-870" width="260" height="50" as="geometry" />
        </mxCell>
        <mxCell id="hc8-fBp4aKdV9i0aLTfq-14" value="&lt;span style=&quot;color: rgb(51, 51, 51); font-family: &amp;quot;Open Sans&amp;quot;, &amp;quot;Clear Sans&amp;quot;, &amp;quot;Helvetica Neue&amp;quot;, Helvetica, Arial, &amp;quot;Segoe UI Emoji&amp;quot;, sans-serif; font-size: 16px; orphans: 4; text-align: left; background-color: rgb(255, 255, 255);&quot;&gt;searchBusinessIdBySearchStr&lt;br&gt;&lt;/span&gt;&lt;span style=&quot;color: rgb(51, 51, 51); font-family: &amp;quot;Open Sans&amp;quot;, &amp;quot;Clear Sans&amp;quot;, &amp;quot;Helvetica Neue&amp;quot;, Helvetica, Arial, &amp;quot;Segoe UI Emoji&amp;quot;, sans-serif; font-size: 16px; orphans: 4; text-align: left; background-color: rgb(255, 255, 255);&quot;&gt;模糊查询业务 id&lt;br&gt;&lt;/span&gt;" style="rounded=1;whiteSpace=wrap;html=1;sketch=1;fontSize=18;fillColor=#d5e8d4;strokeColor=#82b366;" vertex="1" parent="WIyWlLk6GJQsqaUBKTNV-1">
          <mxGeometry x="750" y="-1085" width="240" height="80" as="geometry" />
        </mxCell>
        <mxCell id="hc8-fBp4aKdV9i0aLTfq-15" value="&lt;span style=&quot;color: rgb(51, 51, 51); font-family: &amp;quot;Open Sans&amp;quot;, &amp;quot;Clear Sans&amp;quot;, &amp;quot;Helvetica Neue&amp;quot;, Helvetica, Arial, &amp;quot;Segoe UI Emoji&amp;quot;, sans-serif; font-size: 16px; orphans: 4; text-align: left; background-color: rgb(255, 255, 255);&quot;&gt;queryBusinessId&lt;br&gt;&lt;/span&gt;&lt;span style=&quot;color: rgb(51, 51, 51); font-family: &amp;quot;Open Sans&amp;quot;, &amp;quot;Clear Sans&amp;quot;, &amp;quot;Helvetica Neue&amp;quot;, Helvetica, Arial, &amp;quot;Segoe UI Emoji&amp;quot;, sans-serif; font-size: 16px; orphans: 4; text-align: left; background-color: rgb(255, 255, 255);&quot;&gt;查询业务 id 列表&lt;br&gt;&lt;/span&gt;" style="rounded=1;whiteSpace=wrap;html=1;sketch=1;fontSize=18;fillColor=#d5e8d4;strokeColor=#82b366;" vertex="1" parent="WIyWlLk6GJQsqaUBKTNV-1">
          <mxGeometry x="750" y="-985" width="240" height="80" as="geometry" />
        </mxCell>
        <mxCell id="hc8-fBp4aKdV9i0aLTfq-16" value="&lt;span style=&quot;color: rgb(51, 51, 51); font-family: &amp;quot;Open Sans&amp;quot;, &amp;quot;Clear Sans&amp;quot;, &amp;quot;Helvetica Neue&amp;quot;, Helvetica, Arial, &amp;quot;Segoe UI Emoji&amp;quot;, sans-serif; font-size: 16px; orphans: 4; text-align: left; background-color: rgb(255, 255, 255);&quot;&gt;insertBusinessId&lt;/span&gt;&lt;span style=&quot;color: rgb(51, 51, 51); font-family: &amp;quot;Open Sans&amp;quot;, &amp;quot;Clear Sans&amp;quot;, &amp;quot;Helvetica Neue&amp;quot;, Helvetica, Arial, &amp;quot;Segoe UI Emoji&amp;quot;, sans-serif; font-size: 16px; orphans: 4; text-align: left; background-color: rgb(255, 255, 255);&quot;&gt;&lt;br&gt;&lt;/span&gt;&lt;span style=&quot;color: rgb(51, 51, 51); font-family: &amp;quot;Open Sans&amp;quot;, &amp;quot;Clear Sans&amp;quot;, &amp;quot;Helvetica Neue&amp;quot;, Helvetica, Arial, &amp;quot;Segoe UI Emoji&amp;quot;, sans-serif; font-size: 16px; orphans: 4; text-align: left; background-color: rgb(255, 255, 255);&quot;&gt;插入业务 id&lt;br&gt;&lt;/span&gt;" style="rounded=1;whiteSpace=wrap;html=1;sketch=1;fontSize=18;fillColor=#d5e8d4;strokeColor=#82b366;" vertex="1" parent="WIyWlLk6GJQsqaUBKTNV-1">
          <mxGeometry x="750" y="-885" width="240" height="80" as="geometry" />
        </mxCell>
        <mxCell id="hc8-fBp4aKdV9i0aLTfq-17" value="&lt;span style=&quot;color: rgb(51, 51, 51); font-family: &amp;quot;Open Sans&amp;quot;, &amp;quot;Clear Sans&amp;quot;, &amp;quot;Helvetica Neue&amp;quot;, Helvetica, Arial, &amp;quot;Segoe UI Emoji&amp;quot;, sans-serif; font-size: 16px; orphans: 4; text-align: left; background-color: rgb(255, 255, 255);&quot;&gt;updateBusinessId&lt;br&gt;&lt;/span&gt;&lt;span style=&quot;color: rgb(51, 51, 51); font-family: &amp;quot;Open Sans&amp;quot;, &amp;quot;Clear Sans&amp;quot;, &amp;quot;Helvetica Neue&amp;quot;, Helvetica, Arial, &amp;quot;Segoe UI Emoji&amp;quot;, sans-serif; font-size: 16px; orphans: 4; text-align: left; background-color: rgb(255, 255, 255);&quot;&gt;更新业务 id&lt;br&gt;&lt;/span&gt;" style="rounded=1;whiteSpace=wrap;html=1;sketch=1;fontSize=18;fillColor=#d5e8d4;strokeColor=#82b366;" vertex="1" parent="WIyWlLk6GJQsqaUBKTNV-1">
          <mxGeometry x="750" y="-785" width="240" height="80" as="geometry" />
        </mxCell>
        <mxCell id="hc8-fBp4aKdV9i0aLTfq-18" value="&lt;span style=&quot;color: rgb(51, 51, 51); font-family: &amp;quot;Open Sans&amp;quot;, &amp;quot;Clear Sans&amp;quot;, &amp;quot;Helvetica Neue&amp;quot;, Helvetica, Arial, &amp;quot;Segoe UI Emoji&amp;quot;, sans-serif; font-size: 16px; orphans: 4; text-align: left; background-color: rgb(255, 255, 255);&quot;&gt;deleteBusinessId&lt;br&gt;&lt;/span&gt;&lt;span style=&quot;color: rgb(51, 51, 51); font-family: &amp;quot;Open Sans&amp;quot;, &amp;quot;Clear Sans&amp;quot;, &amp;quot;Helvetica Neue&amp;quot;, Helvetica, Arial, &amp;quot;Segoe UI Emoji&amp;quot;, sans-serif; font-size: 16px; orphans: 4; text-align: left; background-color: rgb(255, 255, 255);&quot;&gt;删除业务 id&lt;br&gt;&lt;/span&gt;" style="rounded=1;whiteSpace=wrap;html=1;sketch=1;fontSize=18;fillColor=#d5e8d4;strokeColor=#82b366;" vertex="1" parent="WIyWlLk6GJQsqaUBKTNV-1">
          <mxGeometry x="750" y="-685" width="240" height="80" as="geometry" />
        </mxCell>
        <mxCell id="hc8-fBp4aKdV9i0aLTfq-19" value="&lt;span style=&quot;orphans: 4; text-align: left; background-color: rgb(255, 255, 255);&quot;&gt;&lt;font face=&quot;Open Sans, Clear Sans, Helvetica Neue, Helvetica, Arial, Segoe UI Emoji, sans-serif&quot; color=&quot;#333333&quot;&gt;&lt;span style=&quot;font-size: 16px;&quot;&gt;ipaas_business_info&lt;/span&gt;&lt;/font&gt;&lt;br&gt;&lt;/span&gt;" style="rounded=1;whiteSpace=wrap;html=1;sketch=1;fontSize=18;fillColor=#ffe6cc;strokeColor=#d79b00;" vertex="1" parent="WIyWlLk6GJQsqaUBKTNV-1">
          <mxGeometry x="1150" y="-885" width="240" height="80" as="geometry" />
        </mxCell>
        <mxCell id="hc8-fBp4aKdV9i0aLTfq-20" value="&lt;span style=&quot;color: rgb(51, 51, 51); font-family: &amp;quot;Lucida Console&amp;quot;, Consolas, Courier, monospace; font-size: 14.4px; orphans: 4; text-align: left; background-color: rgb(243, 244, 244);&quot;&gt;ipaas-soa-datasource-management&lt;/span&gt;" style="rounded=0;whiteSpace=wrap;html=1;sketch=1;fontSize=18;fillColor=#fff2cc;strokeColor=#d6b656;" vertex="1" parent="WIyWlLk6GJQsqaUBKTNV-1">
          <mxGeometry x="460" y="490" width="190" height="60" as="geometry" />
        </mxCell>
        <mxCell id="hc8-fBp4aKdV9i0aLTfq-21" value="&lt;span style=&quot;color: rgb(51, 51, 51); font-family: &amp;quot;Open Sans&amp;quot;, &amp;quot;Clear Sans&amp;quot;, &amp;quot;Helvetica Neue&amp;quot;, Helvetica, Arial, &amp;quot;Segoe UI Emoji&amp;quot;, sans-serif; font-size: 16px; orphans: 4; text-align: left; background-color: rgb(255, 255, 255);&quot;&gt;queryAllDataService&lt;/span&gt;&lt;span style=&quot;color: rgb(51, 51, 51); font-family: &amp;quot;Open Sans&amp;quot;, &amp;quot;Clear Sans&amp;quot;, &amp;quot;Helvetica Neue&amp;quot;, Helvetica, Arial, &amp;quot;Segoe UI Emoji&amp;quot;, sans-serif; font-size: 16px; orphans: 4; text-align: left; background-color: rgb(255, 255, 255);&quot;&gt;&lt;br&gt;查询所有数据源列表&lt;br&gt;&lt;/span&gt;" style="rounded=1;whiteSpace=wrap;html=1;sketch=1;fontSize=18;fillColor=#d5e8d4;strokeColor=#82b366;" vertex="1" parent="WIyWlLk6GJQsqaUBKTNV-1">
          <mxGeometry x="760" y="380" width="240" height="80" as="geometry" />
        </mxCell>
        <mxCell id="hc8-fBp4aKdV9i0aLTfq-22" value="&lt;span style=&quot;color: rgb(51, 51, 51); font-family: &amp;quot;Open Sans&amp;quot;, &amp;quot;Clear Sans&amp;quot;, &amp;quot;Helvetica Neue&amp;quot;, Helvetica, Arial, &amp;quot;Segoe UI Emoji&amp;quot;, sans-serif; font-size: 16px; orphans: 4; text-align: left; background-color: rgb(255, 255, 255);&quot;&gt;queryBusinessIdRelatedDataService&lt;br&gt;&lt;/span&gt;&lt;span style=&quot;color: rgb(51, 51, 51); font-family: &amp;quot;Open Sans&amp;quot;, &amp;quot;Clear Sans&amp;quot;, &amp;quot;Helvetica Neue&amp;quot;, Helvetica, Arial, &amp;quot;Segoe UI Emoji&amp;quot;, sans-serif; font-size: 16px; orphans: 4; text-align: left; background-color: rgb(255, 255, 255);&quot;&gt;查询业务可关联的数据源&lt;br&gt;&lt;/span&gt;" style="rounded=1;whiteSpace=wrap;html=1;sketch=1;fontSize=18;fillColor=#d5e8d4;strokeColor=#82b366;" vertex="1" parent="WIyWlLk6GJQsqaUBKTNV-1">
          <mxGeometry x="760" y="480" width="240" height="80" as="geometry" />
        </mxCell>
        <mxCell id="hc8-fBp4aKdV9i0aLTfq-23" value="&lt;span style=&quot;color: rgb(51, 51, 51); font-family: &amp;quot;Open Sans&amp;quot;, &amp;quot;Clear Sans&amp;quot;, &amp;quot;Helvetica Neue&amp;quot;, Helvetica, Arial, &amp;quot;Segoe UI Emoji&amp;quot;, sans-serif; font-size: 16px; orphans: 4; text-align: left; background-color: rgb(255, 255, 255);&quot;&gt;queryDataServiceBySearchStr&lt;br&gt;&lt;/span&gt;&lt;span style=&quot;orphans: 4; text-align: left; background-color: rgb(255, 255, 255);&quot;&gt;数据源模糊查询&lt;br&gt;&lt;/span&gt;" style="rounded=1;whiteSpace=wrap;html=1;sketch=1;fontSize=18;fillColor=#d5e8d4;strokeColor=#82b366;" vertex="1" parent="WIyWlLk6GJQsqaUBKTNV-1">
          <mxGeometry x="760" y="580" width="240" height="80" as="geometry" />
        </mxCell>
        <mxCell id="hc8-fBp4aKdV9i0aLTfq-24" value="&lt;span style=&quot;orphans: 4; text-align: left; background-color: rgb(255, 255, 255);&quot;&gt;&lt;font face=&quot;Open Sans, Clear Sans, Helvetica Neue, Helvetica, Arial, Segoe UI Emoji, sans-serif&quot; color=&quot;#333333&quot;&gt;&lt;span style=&quot;font-size: 16px;&quot;&gt;ipaas_ihub_data_service_info&lt;/span&gt;&lt;/font&gt;&lt;br&gt;&lt;/span&gt;" style="rounded=1;whiteSpace=wrap;html=1;sketch=1;fontSize=18;fillColor=#ffe6cc;strokeColor=#d79b00;" vertex="1" parent="WIyWlLk6GJQsqaUBKTNV-1">
          <mxGeometry x="1150" y="480" width="240" height="80" as="geometry" />
        </mxCell>
        <mxCell id="hc8-fBp4aKdV9i0aLTfq-25" value="&lt;span style=&quot;color: rgb(51, 51, 51); font-family: &amp;quot;Lucida Console&amp;quot;, Consolas, Courier, monospace; font-size: 14.4px; orphans: 4; text-align: left; background-color: rgb(243, 244, 244);&quot;&gt;ipaas-soa-quality&lt;/span&gt;" style="rounded=0;whiteSpace=wrap;html=1;sketch=1;fontSize=18;fillColor=#fff2cc;strokeColor=#d6b656;" vertex="1" parent="WIyWlLk6GJQsqaUBKTNV-1">
          <mxGeometry x="460" y="890" width="190" height="60" as="geometry" />
        </mxCell>
        <mxCell id="hc8-fBp4aKdV9i0aLTfq-26" value="&lt;span style=&quot;color: rgb(51, 51, 51); font-family: &amp;quot;Open Sans&amp;quot;, &amp;quot;Clear Sans&amp;quot;, &amp;quot;Helvetica Neue&amp;quot;, Helvetica, Arial, &amp;quot;Segoe UI Emoji&amp;quot;, sans-serif; font-size: 16px; orphans: 4; text-align: left; background-color: rgb(255, 255, 255);&quot;&gt;queryTestOrder&lt;br&gt;&lt;/span&gt;&lt;span style=&quot;orphans: 4; text-align: left; background-color: rgb(255, 255, 255);&quot;&gt;查询穹天工单&lt;br&gt;&lt;/span&gt;" style="rounded=1;whiteSpace=wrap;html=1;sketch=1;fontSize=18;fillColor=#d5e8d4;strokeColor=#82b366;" vertex="1" parent="WIyWlLk6GJQsqaUBKTNV-1">
          <mxGeometry x="760" y="880" width="240" height="80" as="geometry" />
        </mxCell>
        <mxCell id="hc8-fBp4aKdV9i0aLTfq-27" value="&lt;span style=&quot;orphans: 4; text-align: left; background-color: rgb(255, 255, 255);&quot;&gt;&lt;font face=&quot;Open Sans, Clear Sans, Helvetica Neue, Helvetica, Arial, Segoe UI Emoji, sans-serif&quot; color=&quot;#333333&quot;&gt;&lt;span style=&quot;font-size: 16px;&quot;&gt;IPassOrderFacade&lt;br&gt;&lt;/span&gt;&lt;/font&gt;（JSF）&lt;br&gt;&lt;/span&gt;" style="rounded=1;whiteSpace=wrap;html=1;sketch=1;fontSize=18;fillColor=#ffe6cc;strokeColor=#d79b00;" vertex="1" parent="WIyWlLk6GJQsqaUBKTNV-1">
          <mxGeometry x="1150" y="880" width="240" height="80" as="geometry" />
        </mxCell>
        <mxCell id="hc8-fBp4aKdV9i0aLTfq-28" value="&lt;span style=&quot;color: rgb(51, 51, 51); font-family: &amp;quot;Lucida Console&amp;quot;, Consolas, Courier, monospace; font-size: 14.4px; orphans: 4; text-align: left; background-color: rgb(243, 244, 244);&quot;&gt;ipaas-soa-sdk-business-relation&lt;/span&gt;" style="rounded=0;whiteSpace=wrap;html=1;sketch=1;fontSize=18;fillColor=#fff2cc;strokeColor=#d6b656;" vertex="1" parent="WIyWlLk6GJQsqaUBKTNV-1">
          <mxGeometry x="460" y="1270" width="190" height="60" as="geometry" />
        </mxCell>
        <mxCell id="hc8-fBp4aKdV9i0aLTfq-29" value="&lt;span style=&quot;orphans: 4; text-align: left; background-color: rgb(255, 255, 255);&quot;&gt;&lt;font face=&quot;Open Sans, Clear Sans, Helvetica Neue, Helvetica, Arial, Segoe UI Emoji, sans-serif&quot; color=&quot;#333333&quot;&gt;&lt;span style=&quot;font-size: 16px;&quot;&gt;createBusinessIDAndSDKRelationInfo&lt;br&gt;&lt;/span&gt;&lt;/font&gt;创建业务 id 与 sdk 的关系&lt;br&gt;&lt;/span&gt;" style="rounded=1;whiteSpace=wrap;html=1;sketch=1;fontSize=18;fillColor=#d5e8d4;strokeColor=#82b366;" vertex="1" parent="WIyWlLk6GJQsqaUBKTNV-1">
          <mxGeometry x="760" y="1160" width="240" height="80" as="geometry" />
        </mxCell>
        <mxCell id="hc8-fBp4aKdV9i0aLTfq-30" value="&lt;span style=&quot;orphans: 4; text-align: left; background-color: rgb(255, 255, 255);&quot;&gt;&lt;font face=&quot;Open Sans, Clear Sans, Helvetica Neue, Helvetica, Arial, Segoe UI Emoji, sans-serif&quot; color=&quot;#333333&quot;&gt;&lt;span style=&quot;font-size: 16px;&quot;&gt;queryBusinessRelationByBusinessID&lt;br&gt;&lt;/span&gt;&lt;/font&gt;查询业务 id 相关的 sdk 关系&lt;br&gt;&lt;/span&gt;" style="rounded=1;whiteSpace=wrap;html=1;sketch=1;fontSize=18;fillColor=#d5e8d4;strokeColor=#82b366;" vertex="1" parent="WIyWlLk6GJQsqaUBKTNV-1">
          <mxGeometry x="760" y="1260" width="240" height="80" as="geometry" />
        </mxCell>
        <mxCell id="hc8-fBp4aKdV9i0aLTfq-31" value="&lt;span style=&quot;orphans: 4; text-align: left; background-color: rgb(255, 255, 255);&quot;&gt;&lt;font face=&quot;Open Sans, Clear Sans, Helvetica Neue, Helvetica, Arial, Segoe UI Emoji, sans-serif&quot; color=&quot;#333333&quot;&gt;&lt;span style=&quot;font-size: 16px;&quot;&gt;editBusinessIDAndSDKRelationInfo&lt;br&gt;&lt;/span&gt;&lt;/font&gt;更新业务 id 与 sdk 的关系&lt;br&gt;&lt;/span&gt;" style="rounded=1;whiteSpace=wrap;html=1;sketch=1;fontSize=18;fillColor=#d5e8d4;strokeColor=#82b366;" vertex="1" parent="WIyWlLk6GJQsqaUBKTNV-1">
          <mxGeometry x="760" y="1360" width="240" height="80" as="geometry" />
        </mxCell>
        <mxCell id="hc8-fBp4aKdV9i0aLTfq-32" value="&lt;span style=&quot;orphans: 4; text-align: left; background-color: rgb(255, 255, 255);&quot;&gt;&lt;font face=&quot;Open Sans, Clear Sans, Helvetica Neue, Helvetica, Arial, Segoe UI Emoji, sans-serif&quot; color=&quot;#333333&quot;&gt;&lt;span style=&quot;font-size: 16px;&quot;&gt;ipaas_business_sdk_info&lt;/span&gt;&lt;/font&gt;&lt;br&gt;&lt;/span&gt;" style="rounded=1;whiteSpace=wrap;html=1;sketch=1;fontSize=18;fillColor=#ffe6cc;strokeColor=#d79b00;" vertex="1" parent="WIyWlLk6GJQsqaUBKTNV-1">
          <mxGeometry x="1150" y="1260" width="240" height="80" as="geometry" />
        </mxCell>
        <mxCell id="hc8-fBp4aKdV9i0aLTfq-33" value="&lt;div style=&quot;orphans: 4; text-align: left;&quot;&gt;&lt;span style=&quot;background-color: initial; font-size: 14.4px;&quot;&gt;&lt;font face=&quot;Lucida Console, Consolas, Courier, monospace&quot; color=&quot;#333333&quot;&gt;ipaas-soa-datacenter&lt;/font&gt;&lt;/span&gt;&lt;/div&gt;" style="rounded=0;whiteSpace=wrap;html=1;sketch=1;fontSize=18;fillColor=#fff2cc;strokeColor=#d6b656;" vertex="1" parent="WIyWlLk6GJQsqaUBKTNV-1">
          <mxGeometry x="460" y="1640" width="190" height="60" as="geometry" />
        </mxCell>
        <mxCell id="hc8-fBp4aKdV9i0aLTfq-35" value="&lt;span style=&quot;orphans: 4; text-align: left; background-color: rgb(255, 255, 255);&quot;&gt;&lt;font face=&quot;Open Sans, Clear Sans, Helvetica Neue, Helvetica, Arial, Segoe UI Emoji, sans-serif&quot; color=&quot;#333333&quot;&gt;&lt;span style=&quot;font-size: 16px;&quot;&gt;queryIndicatorDataService&lt;br&gt;&lt;/span&gt;&lt;/font&gt;查询 ipaas 指标&lt;br&gt;&lt;/span&gt;" style="rounded=1;whiteSpace=wrap;html=1;sketch=1;fontSize=18;fillColor=#d5e8d4;strokeColor=#82b366;" vertex="1" parent="WIyWlLk6GJQsqaUBKTNV-1">
          <mxGeometry x="750" y="1630" width="240" height="80" as="geometry" />
        </mxCell>
        <mxCell id="hc8-fBp4aKdV9i0aLTfq-37" value="&lt;span style=&quot;orphans: 4; text-align: left; background-color: rgb(255, 255, 255);&quot;&gt;&lt;font face=&quot;Open Sans, Clear Sans, Helvetica Neue, Helvetica, Arial, Segoe UI Emoji, sans-serif&quot; color=&quot;#333333&quot;&gt;&lt;span style=&quot;font-size: 16px;&quot;&gt;ipaas_indicator_data_info&lt;/span&gt;&lt;/font&gt;&lt;br&gt;&lt;/span&gt;" style="rounded=1;whiteSpace=wrap;html=1;sketch=1;fontSize=18;fillColor=#ffe6cc;strokeColor=#d79b00;" vertex="1" parent="WIyWlLk6GJQsqaUBKTNV-1">
          <mxGeometry x="1150" y="1630" width="240" height="80" as="geometry" />
        </mxCell>
        <mxCell id="hc8-fBp4aKdV9i0aLTfq-38" value="&lt;div style=&quot;orphans: 4; text-align: left;&quot;&gt;&lt;font face=&quot;Lucida Console, Consolas, Courier, monospace&quot; color=&quot;#333333&quot;&gt;&lt;span style=&quot;font-size: 14.4px;&quot;&gt;ipaas-soa-attribute-config&lt;/span&gt;&lt;/font&gt;&lt;br&gt;&lt;/div&gt;" style="rounded=0;whiteSpace=wrap;html=1;sketch=1;fontSize=18;fillColor=#fff2cc;strokeColor=#d6b656;" vertex="1" parent="WIyWlLk6GJQsqaUBKTNV-1">
          <mxGeometry x="460" y="1850" width="190" height="60" as="geometry" />
        </mxCell>
        <mxCell id="hc8-fBp4aKdV9i0aLTfq-39" value="&lt;span style=&quot;orphans: 4; text-align: left; background-color: rgb(255, 255, 255);&quot;&gt;&lt;font face=&quot;Open Sans, Clear Sans, Helvetica Neue, Helvetica, Arial, Segoe UI Emoji, sans-serif&quot; color=&quot;#333333&quot;&gt;&lt;span style=&quot;font-size: 16px;&quot;&gt;queryAttributeConfigs&lt;br&gt;&lt;/span&gt;&lt;/font&gt;查询标签库&lt;br&gt;&lt;/span&gt;" style="rounded=1;whiteSpace=wrap;html=1;sketch=1;fontSize=18;fillColor=#d5e8d4;strokeColor=#82b366;" vertex="1" parent="WIyWlLk6GJQsqaUBKTNV-1">
          <mxGeometry x="750" y="1840" width="240" height="80" as="geometry" />
        </mxCell>
        <mxCell id="hc8-fBp4aKdV9i0aLTfq-40" value="&lt;span style=&quot;orphans: 4; text-align: left; background-color: rgb(255, 255, 255);&quot;&gt;&lt;font face=&quot;Open Sans, Clear Sans, Helvetica Neue, Helvetica, Arial, Segoe UI Emoji, sans-serif&quot; color=&quot;#333333&quot;&gt;&lt;span style=&quot;font-size: 16px;&quot;&gt;ihub.attribute.config&lt;br&gt;&lt;/span&gt;&lt;/font&gt;（配置）&lt;br&gt;&lt;/span&gt;" style="rounded=1;whiteSpace=wrap;html=1;sketch=1;fontSize=18;fillColor=#ffe6cc;strokeColor=#d79b00;" vertex="1" parent="WIyWlLk6GJQsqaUBKTNV-1">
          <mxGeometry x="1150" y="1840" width="240" height="80" as="geometry" />
        </mxCell>
      </root>
    </mxGraphModel>
  </diagram>
</mxfile>
